<svg xmlns="http://www.w3.org/2000/svg" xmlns:xlink="http://www.w3.org/1999/xlink" width="500" zoomAndPan="magnify" viewBox="0 0 375 374.999991" height="500" preserveAspectRatio="xMidYMid meet" version="1.0"><defs><clipPath id="90c2f0ecdc"><path d="M 21.851562 21.851562 L 353.351562 21.851562 L 353.351562 353.351562 L 21.851562 353.351562 Z M 21.851562 21.851562 " clip-rule="nonzero"/></clipPath><clipPath id="556ab93915"><path d="M 87 83 L 292.101562 83 L 292.101562 315.640625 L 87 315.640625 Z M 87 83 " clip-rule="nonzero"/></clipPath></defs><g clip-path="url(#90c2f0ecdc)"><path fill="#ff5757" d="M 353.140625 187.496094 C 353.140625 278.976562 278.976562 353.136719 187.496094 353.136719 C 96.011719 353.136719 21.851562 278.972656 21.851562 187.496094 C 21.851562 96.011719 96.011719 21.851562 187.496094 21.851562 C 278.976562 21.851562 353.140625 96.011719 353.140625 187.496094 Z M 353.140625 187.496094 " fill-opacity="1" fill-rule="nonzero"/></g><g clip-path="url(#556ab93915)"><path fill="#ffffff" d="M 276.660156 97.210938 C 267.453125 88.433594 255.105469 83.535156 242.382812 83.582031 C 229.246094 83.628906 216.902344 88.769531 207.609375 98.0625 L 189.886719 115.785156 L 172.605469 98.507812 C 153.359375 79.261719 122.019531 78.65625 102.582031 97.71875 C 82.957031 116.964844 82.839844 148.597656 102.234375 167.984375 L 196.078125 261.828125 C 206.789062 272.539062 207.289062 289.980469 196.785156 300.890625 C 186.042969 312.054688 168.203125 312.191406 157.292969 301.277344 L 134.046875 278.035156 C 133.066406 277.054688 132.96875 275.503906 133.808594 274.394531 C 137.242188 269.882812 139.144531 264.144531 138.714844 257.960938 C 137.878906 245.757812 127.898438 235.941406 115.683594 235.304688 C 101.53125 234.570312 89.800781 245.960938 89.988281 259.996094 C 90.160156 272.992188 100.757812 283.722656 113.75 284.046875 C 117.941406 284.152344 121.902344 283.195312 125.386719 281.429688 C 126.445312 280.890625 127.726562 281.117188 128.566406 281.957031 L 152.578125 305.976562 C 159.269531 312.664062 168.054688 316.003906 176.835938 316.003906 C 185.621094 316.003906 194.410156 312.660156 201.097656 305.976562 C 214.472656 292.601562 214.472656 270.835938 201.097656 257.457031 L 106.9375 163.289062 C 90.25 146.601562 90.25 119.453125 106.9375 102.765625 C 123.625 86.078125 150.777344 86.078125 167.460938 102.765625 L 187.449219 122.753906 C 188.121094 123.421875 189.003906 123.738281 189.886719 123.71875 C 190.765625 123.738281 191.652344 123.421875 192.324219 122.753906 L 211.914062 103.164062 C 220.035156 95.039062 231.003906 90.253906 242.488281 90.230469 C 253.953125 90.210938 264.738281 94.664062 272.839844 102.765625 C 280.9375 110.867188 285.390625 121.632812 285.375 133.09375 C 285.355469 144.585938 280.566406 155.5625 272.441406 163.695312 L 266.109375 170.023438 C 265.589844 170.542969 264.882812 170.839844 264.144531 170.839844 L 245.269531 170.839844 C 244.222656 170.839844 243.257812 170.246094 242.792969 169.308594 L 233.679688 151.078125 C 232.660156 149.035156 229.746094 149.035156 228.726562 151.078125 L 213.058594 182.386719 C 212.039062 184.429688 209.125 184.429688 208.105469 182.386719 L 202.757812 171.679688 C 201.738281 169.636719 198.824219 169.636719 197.804688 171.679688 L 192.457031 182.378906 C 191.4375 184.421875 188.523438 184.421875 187.503906 182.378906 L 171.847656 151.066406 C 170.828125 149.023438 167.914062 149.023438 166.894531 151.066406 L 157.78125 169.296875 C 157.308594 170.234375 156.351562 170.828125 155.304688 170.828125 L 138.601562 170.828125 C 136.777344 170.828125 135.195312 172.226562 135.140625 174.050781 C 135.082031 175.933594 136.589844 177.472656 138.460938 177.472656 L 159.414062 177.472656 C 160.460938 177.472656 161.425781 176.878906 161.890625 175.945312 L 166.894531 165.925781 C 167.914062 163.882812 170.828125 163.882812 171.847656 165.925781 L 187.503906 197.238281 C 188.523438 199.285156 191.4375 199.285156 192.457031 197.238281 L 197.804688 186.539062 C 198.824219 184.496094 201.738281 184.496094 202.757812 186.539062 L 208.105469 197.246094 C 209.125 199.289062 212.039062 199.289062 213.058594 197.246094 L 228.714844 165.929688 C 229.734375 163.894531 232.648438 163.886719 233.667969 165.929688 L 238.679688 175.949219 C 239.148438 176.886719 240.109375 177.480469 241.15625 177.480469 L 266.660156 177.480469 C 266.660156 177.480469 266.660156 177.480469 266.664062 177.480469 L 266.671875 177.480469 C 266.875 177.480469 267.074219 177.457031 267.269531 177.421875 C 267.28125 177.421875 267.296875 177.417969 267.308594 177.417969 C 267.5 177.378906 267.695312 177.324219 267.878906 177.25 C 267.894531 177.246094 267.910156 177.242188 267.929688 177.234375 C 268.109375 177.15625 268.289062 177.0625 268.453125 176.957031 C 268.46875 176.945312 268.488281 176.941406 268.503906 176.929688 C 268.679688 176.808594 268.847656 176.675781 269.003906 176.527344 C 269.007812 176.519531 269.007812 176.519531 269.011719 176.515625 L 277.054688 168.472656 C 286.570312 158.957031 292.125 146.070312 292.019531 132.613281 C 291.910156 119.152344 286.453125 106.542969 276.660156 97.210938 Z M 96.636719 259.664062 C 96.636719 249.875 104.601562 241.917969 114.378906 241.917969 C 124.160156 241.917969 132.125 249.882812 132.125 259.664062 C 132.125 269.449219 124.160156 277.410156 114.378906 277.410156 C 104.601562 277.410156 96.636719 269.449219 96.636719 259.664062 Z M 96.636719 259.664062 " fill-opacity="1" fill-rule="nonzero"/></g></svg>